<mxfile host="app.diagrams.net" modified="2023-03-10T11:50:27.007Z" agent="5.0 (Windows NT 10.0; Win64; x64) AppleWebKit/537.36 (KHTML, like Gecko) Chrome/110.0.0.0 Safari/537.36 Edg/110.0.1587.63" etag="5J3APFAtsmYo-S2OwlH5" version="21.0.6" type="github">
  <diagram name="第 1 页" id="UUKfPPrQxJ7Q-2GcC6yb">
    <mxGraphModel dx="2027" dy="1147" grid="1" gridSize="10" guides="1" tooltips="1" connect="1" arrows="1" fold="1" page="1" pageScale="1" pageWidth="827" pageHeight="1169" math="0" shadow="0">
      <root>
        <mxCell id="0" />
        <mxCell id="1" parent="0" />
        <mxCell id="KVv-D9XRWDpHxWZWRDA9-1" value="" style="rounded=0;whiteSpace=wrap;html=1;" parent="1" vertex="1">
          <mxGeometry x="601" y="399" width="280" height="640" as="geometry" />
        </mxCell>
        <mxCell id="KVv-D9XRWDpHxWZWRDA9-6" value="&lt;font style=&quot;font-size: 18px;&quot;&gt;VM Header:&lt;br&gt;Machine Type, Version id, ...&lt;/font&gt;" style="rounded=0;whiteSpace=wrap;html=1;fillColor=#CCCCCC;" parent="1" vertex="1">
          <mxGeometry x="601" y="399" width="280" height="80" as="geometry" />
        </mxCell>
        <mxCell id="KVv-D9XRWDpHxWZWRDA9-7" value="&lt;font style=&quot;font-size: 18px;&quot;&gt;VM Setup: Device Meta&lt;br&gt;&lt;/font&gt;" style="rounded=0;whiteSpace=wrap;html=1;fillColor=#FFF4C3;" parent="1" vertex="1">
          <mxGeometry x="601" y="479" width="280" height="71" as="geometry" />
        </mxCell>
        <mxCell id="KVv-D9XRWDpHxWZWRDA9-12" value="" style="rounded=0;whiteSpace=wrap;html=1;fillColor=#E6FFCC;" parent="1" vertex="1">
          <mxGeometry x="601" y="550" width="280" height="430" as="geometry" />
        </mxCell>
        <mxCell id="KVv-D9XRWDpHxWZWRDA9-13" value="&lt;font style=&quot;font-size: 18px;&quot;&gt;Pre-copy: Iterations&lt;/font&gt;" style="text;html=1;strokeColor=none;fillColor=none;align=center;verticalAlign=middle;whiteSpace=wrap;rounded=0;" parent="1" vertex="1">
          <mxGeometry x="601" y="550" width="280" height="40" as="geometry" />
        </mxCell>
        <mxCell id="KVv-D9XRWDpHxWZWRDA9-14" value="" style="rounded=0;whiteSpace=wrap;html=1;fillColor=#FFCCCC;" parent="1" vertex="1">
          <mxGeometry x="621" y="590" width="240" height="370" as="geometry" />
        </mxCell>
        <mxCell id="KVv-D9XRWDpHxWZWRDA9-15" value="&lt;font style=&quot;font-size: 18px;&quot;&gt;Offset: 0x0&lt;/font&gt;" style="rounded=0;whiteSpace=wrap;html=1;" parent="1" vertex="1">
          <mxGeometry x="641" y="630" width="100" height="40" as="geometry" />
        </mxCell>
        <mxCell id="KVv-D9XRWDpHxWZWRDA9-16" value="&lt;font style=&quot;font-size: 18px;&quot;&gt;Content&lt;/font&gt;" style="rounded=0;whiteSpace=wrap;html=1;" parent="1" vertex="1">
          <mxGeometry x="741" y="630" width="100" height="40" as="geometry" />
        </mxCell>
        <mxCell id="KVv-D9XRWDpHxWZWRDA9-17" value="&lt;font style=&quot;font-size: 18px;&quot;&gt;RAM Device&lt;/font&gt;" style="text;html=1;strokeColor=none;fillColor=none;align=center;verticalAlign=middle;whiteSpace=wrap;rounded=0;" parent="1" vertex="1">
          <mxGeometry x="621" y="590" width="240" height="40" as="geometry" />
        </mxCell>
        <mxCell id="KVv-D9XRWDpHxWZWRDA9-18" value="&lt;font style=&quot;font-size: 18px;&quot;&gt;Offset: 0x1&lt;/font&gt;" style="rounded=0;whiteSpace=wrap;html=1;fillColor=#CCFFFF;" parent="1" vertex="1">
          <mxGeometry x="641" y="690" width="100" height="40" as="geometry" />
        </mxCell>
        <mxCell id="KVv-D9XRWDpHxWZWRDA9-19" value="&lt;font style=&quot;font-size: 18px;&quot;&gt;Content&lt;/font&gt;" style="rounded=0;whiteSpace=wrap;html=1;fillColor=#CCFFFF;" parent="1" vertex="1">
          <mxGeometry x="741" y="690" width="100" height="40" as="geometry" />
        </mxCell>
        <mxCell id="KVv-D9XRWDpHxWZWRDA9-20" value="&lt;font style=&quot;font-size: 18px;&quot;&gt;......&lt;/font&gt;" style="text;html=1;strokeColor=none;fillColor=none;align=center;verticalAlign=middle;whiteSpace=wrap;rounded=0;" parent="1" vertex="1">
          <mxGeometry x="711" y="740" width="60" height="20" as="geometry" />
        </mxCell>
        <mxCell id="KVv-D9XRWDpHxWZWRDA9-21" value="&lt;font style=&quot;font-size: 18px;&quot;&gt;Offset: n&lt;/font&gt;" style="rounded=0;whiteSpace=wrap;html=1;fillColor=#CCFFFF;" parent="1" vertex="1">
          <mxGeometry x="641" y="900" width="100" height="40" as="geometry" />
        </mxCell>
        <mxCell id="KVv-D9XRWDpHxWZWRDA9-22" value="&lt;font style=&quot;font-size: 18px;&quot;&gt;Content&lt;/font&gt;" style="rounded=0;whiteSpace=wrap;html=1;fillColor=#CCFFFF;" parent="1" vertex="1">
          <mxGeometry x="741" y="900" width="100" height="40" as="geometry" />
        </mxCell>
        <mxCell id="KVv-D9XRWDpHxWZWRDA9-24" value="&lt;font style=&quot;font-size: 18px;&quot;&gt;VM State: Cpu states&lt;/font&gt;" style="rounded=0;whiteSpace=wrap;html=1;fillColor=#9AC7BF;" parent="1" vertex="1">
          <mxGeometry x="601" y="979" width="280" height="60" as="geometry" />
        </mxCell>
        <mxCell id="KVv-D9XRWDpHxWZWRDA9-25" value="&lt;font style=&quot;font-size: 18px;&quot;&gt;Page 0&lt;/font&gt;" style="text;html=1;strokeColor=none;fillColor=none;align=center;verticalAlign=middle;whiteSpace=wrap;rounded=0;" parent="1" vertex="1">
          <mxGeometry x="901" y="590" width="80" height="40" as="geometry" />
        </mxCell>
        <mxCell id="KVv-D9XRWDpHxWZWRDA9-26" value="&lt;font style=&quot;font-size: 18px;&quot;&gt;Page 1&lt;/font&gt;" style="text;html=1;strokeColor=none;fillColor=none;align=center;verticalAlign=middle;whiteSpace=wrap;rounded=0;" parent="1" vertex="1">
          <mxGeometry x="901" y="650" width="80" height="40" as="geometry" />
        </mxCell>
        <mxCell id="KVv-D9XRWDpHxWZWRDA9-27" value="&lt;font style=&quot;font-size: 18px;&quot;&gt;Page n&lt;/font&gt;" style="text;html=1;strokeColor=none;fillColor=none;align=center;verticalAlign=middle;whiteSpace=wrap;rounded=0;" parent="1" vertex="1">
          <mxGeometry x="901" y="860" width="80" height="40" as="geometry" />
        </mxCell>
        <mxCell id="KVv-D9XRWDpHxWZWRDA9-28" value="" style="endArrow=classic;html=1;rounded=0;exitX=0;exitY=0.75;exitDx=0;exitDy=0;entryX=1;entryY=0.25;entryDx=0;entryDy=0;" parent="1" source="KVv-D9XRWDpHxWZWRDA9-25" target="KVv-D9XRWDpHxWZWRDA9-16" edge="1">
          <mxGeometry width="50" height="50" relative="1" as="geometry">
            <mxPoint x="1051" y="600" as="sourcePoint" />
            <mxPoint x="991" y="660" as="targetPoint" />
          </mxGeometry>
        </mxCell>
        <mxCell id="KVv-D9XRWDpHxWZWRDA9-29" value="" style="endArrow=classic;html=1;rounded=0;exitX=0;exitY=0.75;exitDx=0;exitDy=0;entryX=1;entryY=0.25;entryDx=0;entryDy=0;" parent="1" edge="1">
          <mxGeometry width="50" height="50" relative="1" as="geometry">
            <mxPoint x="901" y="680" as="sourcePoint" />
            <mxPoint x="841" y="700" as="targetPoint" />
          </mxGeometry>
        </mxCell>
        <mxCell id="KVv-D9XRWDpHxWZWRDA9-30" value="" style="endArrow=classic;html=1;rounded=0;exitX=0;exitY=0.75;exitDx=0;exitDy=0;entryX=1;entryY=0.25;entryDx=0;entryDy=0;" parent="1" edge="1">
          <mxGeometry width="50" height="50" relative="1" as="geometry">
            <mxPoint x="901" y="890" as="sourcePoint" />
            <mxPoint x="841" y="910" as="targetPoint" />
          </mxGeometry>
        </mxCell>
        <mxCell id="KVv-D9XRWDpHxWZWRDA9-31" value="" style="endArrow=classic;html=1;rounded=0;" parent="1" edge="1">
          <mxGeometry width="50" height="50" relative="1" as="geometry">
            <mxPoint x="320" y="311" as="sourcePoint" />
            <mxPoint x="761" y="311" as="targetPoint" />
          </mxGeometry>
        </mxCell>
        <mxCell id="KVv-D9XRWDpHxWZWRDA9-32" value="" style="endArrow=none;html=1;rounded=0;dashed=1;" parent="1" edge="1">
          <mxGeometry width="50" height="50" relative="1" as="geometry">
            <mxPoint x="361" y="311" as="sourcePoint" />
            <mxPoint x="361" y="240" as="targetPoint" />
          </mxGeometry>
        </mxCell>
        <mxCell id="KVv-D9XRWDpHxWZWRDA9-33" value="&lt;font style=&quot;font-size: 18px;&quot;&gt;backup thread&lt;/font&gt;" style="text;html=1;strokeColor=none;fillColor=none;align=center;verticalAlign=middle;whiteSpace=wrap;rounded=0;" parent="1" vertex="1">
          <mxGeometry x="300" y="359" width="160" height="40" as="geometry" />
        </mxCell>
        <mxCell id="KVv-D9XRWDpHxWZWRDA9-34" value="" style="rounded=1;whiteSpace=wrap;html=1;fillColor=#F19C99;" parent="1" vertex="1">
          <mxGeometry x="361" y="271" width="120" height="40" as="geometry" />
        </mxCell>
        <mxCell id="KVv-D9XRWDpHxWZWRDA9-35" value="&lt;font style=&quot;font-size: 18px;&quot;&gt;Start&lt;/font&gt;" style="text;html=1;strokeColor=none;fillColor=none;align=center;verticalAlign=middle;whiteSpace=wrap;rounded=0;" parent="1" vertex="1">
          <mxGeometry x="361" y="276" width="60" height="30" as="geometry" />
        </mxCell>
        <mxCell id="KVv-D9XRWDpHxWZWRDA9-36" value="" style="rounded=1;whiteSpace=wrap;html=1;fontSize=18;fillColor=#F19C99;" parent="1" vertex="1">
          <mxGeometry x="601" y="271" width="120" height="40" as="geometry" />
        </mxCell>
        <mxCell id="KVv-D9XRWDpHxWZWRDA9-37" value="&lt;font style=&quot;font-size: 18px;&quot;&gt;End&lt;/font&gt;" style="text;html=1;strokeColor=none;fillColor=none;align=center;verticalAlign=middle;whiteSpace=wrap;rounded=0;" parent="1" vertex="1">
          <mxGeometry x="661" y="276" width="60" height="30" as="geometry" />
        </mxCell>
        <mxCell id="KVv-D9XRWDpHxWZWRDA9-38" value="Backup dirty pages" style="rounded=0;whiteSpace=wrap;html=1;fontSize=18;fillColor=#E6FFCC;" parent="1" vertex="1">
          <mxGeometry x="421" y="271" width="240" height="40" as="geometry" />
        </mxCell>
        <mxCell id="KVv-D9XRWDpHxWZWRDA9-39" value="" style="curved=1;endArrow=classic;html=1;rounded=0;strokeWidth=4;" parent="1" edge="1">
          <mxGeometry width="50" height="50" relative="1" as="geometry">
            <mxPoint x="327" y="355" as="sourcePoint" />
            <mxPoint x="377" y="325" as="targetPoint" />
            <Array as="points">
              <mxPoint x="397" y="355" />
              <mxPoint x="307" y="325" />
            </Array>
          </mxGeometry>
        </mxCell>
        <mxCell id="KVv-D9XRWDpHxWZWRDA9-41" value="&lt;span style=&quot;font-size: 24px;&quot;&gt;t2&lt;/span&gt;" style="text;html=1;strokeColor=none;fillColor=none;align=center;verticalAlign=middle;whiteSpace=wrap;rounded=0;" parent="1" vertex="1">
          <mxGeometry x="341" y="200" width="40" height="40" as="geometry" />
        </mxCell>
        <mxCell id="KVv-D9XRWDpHxWZWRDA9-43" value="Backup Image" style="text;html=1;strokeColor=default;fillColor=#D4E1F5;align=center;verticalAlign=middle;whiteSpace=wrap;rounded=0;fontSize=18;" parent="1" vertex="1">
          <mxGeometry x="661" y="359" width="160" height="40" as="geometry" />
        </mxCell>
        <mxCell id="KVv-D9XRWDpHxWZWRDA9-46" value="" style="shape=flexArrow;endArrow=classic;html=1;rounded=0;entryX=0;entryY=0.5;entryDx=0;entryDy=0;strokeColor=none;fillColor=#FFB570;strokeWidth=5;" parent="1" target="KVv-D9XRWDpHxWZWRDA9-21" edge="1">
          <mxGeometry width="50" height="50" relative="1" as="geometry">
            <mxPoint x="460" y="310" as="sourcePoint" />
            <mxPoint x="720" y="1009" as="targetPoint" />
            <Array as="points">
              <mxPoint x="460" y="920" />
            </Array>
          </mxGeometry>
        </mxCell>
        <mxCell id="KVv-D9XRWDpHxWZWRDA9-48" value="&lt;font style=&quot;font-size: 18px;&quot;&gt;Offset: n-2&lt;/font&gt;" style="rounded=0;whiteSpace=wrap;html=1;" parent="1" vertex="1">
          <mxGeometry x="641" y="780" width="100" height="40" as="geometry" />
        </mxCell>
        <mxCell id="KVv-D9XRWDpHxWZWRDA9-49" value="&lt;font style=&quot;font-size: 18px;&quot;&gt;Content&lt;/font&gt;" style="rounded=0;whiteSpace=wrap;html=1;" parent="1" vertex="1">
          <mxGeometry x="741" y="780" width="100" height="40" as="geometry" />
        </mxCell>
        <mxCell id="KVv-D9XRWDpHxWZWRDA9-50" value="&lt;span style=&quot;font-size: 18px;&quot;&gt;Offset: n-1&lt;/span&gt;" style="rounded=0;whiteSpace=wrap;html=1;fillColor=#CCFFFF;" parent="1" vertex="1">
          <mxGeometry x="641" y="840" width="100" height="40" as="geometry" />
        </mxCell>
        <mxCell id="KVv-D9XRWDpHxWZWRDA9-51" value="&lt;font style=&quot;font-size: 18px;&quot;&gt;Content&lt;/font&gt;" style="rounded=0;whiteSpace=wrap;html=1;fillColor=#CCFFFF;" parent="1" vertex="1">
          <mxGeometry x="741" y="840" width="100" height="40" as="geometry" />
        </mxCell>
        <mxCell id="KVv-D9XRWDpHxWZWRDA9-52" value="" style="shape=flexArrow;endArrow=classic;html=1;rounded=0;entryX=0;entryY=0.5;entryDx=0;entryDy=0;strokeColor=none;fillColor=#FFB570;strokeWidth=5;" parent="1" target="KVv-D9XRWDpHxWZWRDA9-50" edge="1">
          <mxGeometry width="50" height="50" relative="1" as="geometry">
            <mxPoint x="500" y="310" as="sourcePoint" />
            <mxPoint x="681" y="920" as="targetPoint" />
            <Array as="points">
              <mxPoint x="500" y="860" />
            </Array>
          </mxGeometry>
        </mxCell>
        <mxCell id="KVv-D9XRWDpHxWZWRDA9-53" value="" style="shape=flexArrow;endArrow=classic;html=1;rounded=0;entryX=0;entryY=0.5;entryDx=0;entryDy=0;strokeColor=none;fillColor=#FFB570;strokeWidth=5;" parent="1" target="KVv-D9XRWDpHxWZWRDA9-18" edge="1">
          <mxGeometry width="50" height="50" relative="1" as="geometry">
            <mxPoint x="540" y="310" as="sourcePoint" />
            <mxPoint x="721" y="920" as="targetPoint" />
            <Array as="points">
              <mxPoint x="540" y="710" />
            </Array>
          </mxGeometry>
        </mxCell>
        <mxCell id="KVv-D9XRWDpHxWZWRDA9-54" value="" style="rounded=0;whiteSpace=wrap;html=1;" parent="1" vertex="1">
          <mxGeometry x="360" y="479" width="40" height="40" as="geometry" />
        </mxCell>
        <mxCell id="KVv-D9XRWDpHxWZWRDA9-55" value="" style="rounded=0;whiteSpace=wrap;html=1;fillColor=#CCFFFF;" parent="1" vertex="1">
          <mxGeometry x="360" y="659" width="40" height="40" as="geometry" />
        </mxCell>
        <mxCell id="KVv-D9XRWDpHxWZWRDA9-56" value="&lt;font style=&quot;font-size: 18px;&quot;&gt;pages already copied and not dirtied on source VM&amp;nbsp;&lt;/font&gt;" style="text;html=1;strokeColor=none;fillColor=none;align=center;verticalAlign=middle;whiteSpace=wrap;rounded=0;" parent="1" vertex="1">
          <mxGeometry x="320" y="540" width="120" height="80" as="geometry" />
        </mxCell>
        <mxCell id="KVv-D9XRWDpHxWZWRDA9-57" value="&lt;font style=&quot;font-size: 18px;&quot;&gt;pages dirtied on source VM and need to be overwritten&lt;/font&gt;" style="text;html=1;strokeColor=none;fillColor=none;align=center;verticalAlign=middle;whiteSpace=wrap;rounded=0;" parent="1" vertex="1">
          <mxGeometry x="320" y="720" width="120" height="80" as="geometry" />
        </mxCell>
        <mxCell id="KVv-D9XRWDpHxWZWRDA9-58" value="&lt;font style=&quot;font-size: 24px;&quot;&gt;......&lt;/font&gt;" style="text;html=1;strokeColor=none;fillColor=none;align=center;verticalAlign=middle;whiteSpace=wrap;rounded=0;rotation=90;" parent="1" vertex="1">
          <mxGeometry x="912.5" y="746.25" width="61" height="57.5" as="geometry" />
        </mxCell>
        <mxCell id="KVv-D9XRWDpHxWZWRDA9-59" value="" style="endArrow=none;html=1;rounded=0;dashed=1;" parent="1" edge="1">
          <mxGeometry width="50" height="50" relative="1" as="geometry">
            <mxPoint x="721" y="311" as="sourcePoint" />
            <mxPoint x="721" y="240" as="targetPoint" />
          </mxGeometry>
        </mxCell>
        <mxCell id="KVv-D9XRWDpHxWZWRDA9-60" value="&lt;span style=&quot;font-size: 24px;&quot;&gt;t4&lt;/span&gt;" style="text;html=1;strokeColor=none;fillColor=none;align=center;verticalAlign=middle;whiteSpace=wrap;rounded=0;" parent="1" vertex="1">
          <mxGeometry x="701" y="200" width="40" height="40" as="geometry" />
        </mxCell>
        <mxCell id="7mljuvqPFeRuDDV2o3rC-1" value="Timeline" style="text;html=1;strokeColor=none;fillColor=none;align=center;verticalAlign=middle;whiteSpace=wrap;rounded=0;fontSize=18;" vertex="1" parent="1">
          <mxGeometry x="661" y="311" width="100" height="30" as="geometry" />
        </mxCell>
      </root>
    </mxGraphModel>
  </diagram>
</mxfile>
